<svg xmlns="http://www.w3.org/2000/svg" viewBox="0 0 900 360" role="img" aria-labelledby="title desc">
<title id="title">Quality Gates</title>
<desc id="desc">evidence before completion</desc>
<style>
  .bg{fill:#fffaf0}.ink{fill:#20242c}.muted{fill:#5e6673}.line{stroke:#20242c;stroke-width:4;stroke-linecap:round;stroke-linejoin:round}.thin{stroke:#20242c;stroke-width:2;stroke-linecap:round}.accent{fill:#2e7d32}.accent-line{stroke:#2e7d32;stroke-width:5;stroke-linecap:round;stroke-linejoin:round}.title{font:700 34px Arial,sans-serif;fill:#20242c}.label{font:700 16px Arial,sans-serif;fill:#20242c}.small{font:14px Arial,sans-serif;fill:#5e6673}.mono{font:700 13px monospace;fill:#20242c}
</style>
<rect class="bg" width="900" height="360"/>
<path d="M0 310H900M0 250H900M0 190H900M0 130H900M0 70H900M110 0V360M230 0V360M350 0V360M470 0V360M590 0V360M710 0V360M830 0V360" stroke="#e6decf" stroke-width="1" opacity=".7"/>
<text x="48" y="62" class="title">Quality Gates</text>
<text x="50" y="326" class="small">evidence before completion</text>
<rect x="114" y="112" width="98" height="150" rx="12" fill="#f5f7fb" stroke="#20242c" stroke-width="3"/><rect x="132" y="138" width="62" height="72" rx="8" fill="#2e7d32" opacity=".85"/><path d="M144 176l14 14 26-36" stroke="#fff" stroke-width="7" fill="none" stroke-linecap="round" stroke-linejoin="round"/><text x="163" y="242" text-anchor="middle" class="small">tests</text><rect x="250" y="112" width="98" height="150" rx="12" fill="#fff" stroke="#20242c" stroke-width="3"/><rect x="268" y="138" width="62" height="72" rx="8" fill="#2e7d32" opacity=".85"/><path d="M280 176l14 14 26-36" stroke="#fff" stroke-width="7" fill="none" stroke-linecap="round" stroke-linejoin="round"/><text x="299" y="242" text-anchor="middle" class="small">build</text><rect x="386" y="112" width="98" height="150" rx="12" fill="#f5f7fb" stroke="#20242c" stroke-width="3"/><rect x="404" y="138" width="62" height="72" rx="8" fill="#2e7d32" opacity=".85"/><path d="M416 176l14 14 26-36" stroke="#fff" stroke-width="7" fill="none" stroke-linecap="round" stroke-linejoin="round"/><text x="435" y="242" text-anchor="middle" class="small">browser</text><rect x="522" y="112" width="98" height="150" rx="12" fill="#fff" stroke="#20242c" stroke-width="3"/><rect x="540" y="138" width="62" height="72" rx="8" fill="#2e7d32" opacity=".85"/><path d="M552 176l14 14 26-36" stroke="#fff" stroke-width="7" fill="none" stroke-linecap="round" stroke-linejoin="round"/><text x="571" y="242" text-anchor="middle" class="small">logs</text><rect x="658" y="112" width="98" height="150" rx="12" fill="#f5f7fb" stroke="#20242c" stroke-width="3"/><rect x="676" y="138" width="62" height="72" rx="8" fill="#2e7d32" opacity=".85"/><path d="M688 176l14 14 26-36" stroke="#fff" stroke-width="7" fill="none" stroke-linecap="round" stroke-linejoin="round"/><text x="707" y="242" text-anchor="middle" class="small">risk</text>
</svg>
