<svg xmlns="http://www.w3.org/2000/svg" viewBox="0 0 900 360" role="img" aria-labelledby="title desc">
<title id="title">Alt Workflow</title>
<desc id="desc">image context draft review publish</desc>
<style>
  .bg{fill:#fffaf0}.ink{fill:#20242c}.muted{fill:#5e6673}.line{stroke:#20242c;stroke-width:4;stroke-linecap:round;stroke-linejoin:round}.thin{stroke:#20242c;stroke-width:2;stroke-linecap:round}.accent{fill:#1e88e5}.accent-line{stroke:#1e88e5;stroke-width:5;stroke-linecap:round;stroke-linejoin:round}.title{font:700 34px Arial,sans-serif;fill:#20242c}.label{font:700 16px Arial,sans-serif;fill:#20242c}.small{font:14px Arial,sans-serif;fill:#5e6673}.mono{font:700 13px monospace;fill:#20242c}
</style>
<rect class="bg" width="900" height="360"/>
<path d="M0 310H900M0 250H900M0 190H900M0 130H900M0 70H900M110 0V360M230 0V360M350 0V360M470 0V360M590 0V360M710 0V360M830 0V360" stroke="#e6decf" stroke-width="1" opacity=".7"/>
<text x="48" y="62" class="title">Alt Workflow</text>
<text x="50" y="326" class="small">image context draft review publish</text>
<rect x="52" y="92" width="796" height="182" rx="24" fill="#fffdf8" stroke="#20242c" stroke-width="3"/><path d="M92 226h700" class="thin" opacity=".35"/><rect x="92" y="126" width="110" height="74" rx="14" fill="#f5f7fb" stroke="#20242c" stroke-width="3"/><circle cx="120" cy="154" r="12" fill="#1e88e5"/><path d="M202 163h35" class="accent-line"/><path d="M229 153l13 10-13 10" fill="none" class="accent-line"/><text x="147" y="184" text-anchor="middle" class="label">Image</text><rect x="242" y="126" width="110" height="74" rx="14" fill="#ffffff" stroke="#20242c" stroke-width="3"/><circle cx="270" cy="154" r="12" fill="#1e88e5"/><path d="M352 163h35" class="accent-line"/><path d="M379 153l13 10-13 10" fill="none" class="accent-line"/><text x="297" y="184" text-anchor="middle" class="label">Context</text><rect x="392" y="126" width="110" height="74" rx="14" fill="#f5f7fb" stroke="#20242c" stroke-width="3"/><circle cx="420" cy="154" r="12" fill="#1e88e5"/><path d="M502 163h35" class="accent-line"/><path d="M529 153l13 10-13 10" fill="none" class="accent-line"/><text x="447" y="184" text-anchor="middle" class="label">Draft</text><rect x="542" y="126" width="110" height="74" rx="14" fill="#ffffff" stroke="#20242c" stroke-width="3"/><circle cx="570" cy="154" r="12" fill="#1e88e5"/><path d="M652 163h35" class="accent-line"/><path d="M679 153l13 10-13 10" fill="none" class="accent-line"/><text x="597" y="184" text-anchor="middle" class="label">Review</text><rect x="692" y="126" width="110" height="74" rx="14" fill="#f5f7fb" stroke="#20242c" stroke-width="3"/><circle cx="720" cy="154" r="12" fill="#1e88e5"/><path d="M802 163h35" class="accent-line"/><path d="M829 153l13 10-13 10" fill="none" class="accent-line"/><text x="747" y="184" text-anchor="middle" class="label">Publish</text>
</svg>
