<svg xmlns="http://www.w3.org/2000/svg" viewBox="0 0 900 360" role="img" aria-labelledby="title desc">
<title id="title">Accessibility Review</title>
<desc id="desc">short accurate contextual verified</desc>
<style>
  .bg{fill:#fffaf0}.ink{fill:#20242c}.muted{fill:#5e6673}.line{stroke:#20242c;stroke-width:4;stroke-linecap:round;stroke-linejoin:round}.thin{stroke:#20242c;stroke-width:2;stroke-linecap:round}.accent{fill:#43a047}.accent-line{stroke:#43a047;stroke-width:5;stroke-linecap:round;stroke-linejoin:round}.title{font:700 34px Arial,sans-serif;fill:#20242c}.label{font:700 16px Arial,sans-serif;fill:#20242c}.small{font:14px Arial,sans-serif;fill:#5e6673}.mono{font:700 13px monospace;fill:#20242c}
</style>
<rect class="bg" width="900" height="360"/>
<path d="M0 310H900M0 250H900M0 190H900M0 130H900M0 70H900M110 0V360M230 0V360M350 0V360M470 0V360M590 0V360M710 0V360M830 0V360" stroke="#e6decf" stroke-width="1" opacity=".7"/>
<text x="48" y="62" class="title">Accessibility Review</text>
<text x="50" y="326" class="small">short accurate contextual verified</text>
<rect x="90" y="94" width="320" height="196" rx="18" fill="#ffffff" stroke="#20242c" stroke-width="3"/><path d="M122 132h246M122 172h246M122 212h246M122 252h246" class="thin" opacity=".35"/><circle cx="122" cy="128" r="12" fill="#43a047"/><path d="M116 128l5 5 10-13" stroke="#fff" stroke-width="3" fill="none" stroke-linecap="round" stroke-linejoin="round"/><text x="148" y="133" text-anchor="start" class="label">Short</text><circle cx="122" cy="166" r="12" fill="#43a047"/><path d="M116 166l5 5 10-13" stroke="#fff" stroke-width="3" fill="none" stroke-linecap="round" stroke-linejoin="round"/><text x="148" y="171" text-anchor="start" class="label">Accurate</text><circle cx="122" cy="204" r="12" fill="#43a047"/><path d="M116 204l5 5 10-13" stroke="#fff" stroke-width="3" fill="none" stroke-linecap="round" stroke-linejoin="round"/><text x="148" y="209" text-anchor="start" class="label">Context</text><circle cx="122" cy="242" r="12" fill="#43a047"/><path d="M116 242l5 5 10-13" stroke="#fff" stroke-width="3" fill="none" stroke-linecap="round" stroke-linejoin="round"/><text x="148" y="247" text-anchor="start" class="label">No keyword</text><circle cx="122" cy="280" r="12" fill="#43a047"/><path d="M116 280l5 5 10-13" stroke="#fff" stroke-width="3" fill="none" stroke-linecap="round" stroke-linejoin="round"/><text x="148" y="285" text-anchor="start" class="label">Approved</text><rect x="482" y="112" width="270" height="142" rx="22" fill="#f5f7fb" stroke="#20242c" stroke-width="3"/><path d="M518 204c40-72 104-72 144 0" fill="none" class="accent-line"/><circle cx="518" cy="204" r="18" fill="#43a047"/><circle cx="662" cy="204" r="18" fill="#20242c"/><text x="617" y="151" class="mono" text-anchor="middle">human review</text>
</svg>
