<svg xmlns="http://www.w3.org/2000/svg" viewBox="0 0 900 360" role="img" aria-labelledby="title desc">
<title id="title">Trellis Task Board</title>
<desc id="desc">prd design build check archive</desc>
<style>
  .bg{fill:#fffaf0}.ink{fill:#20242c}.muted{fill:#5e6673}.line{stroke:#20242c;stroke-width:4;stroke-linecap:round;stroke-linejoin:round}.thin{stroke:#20242c;stroke-width:2;stroke-linecap:round}.accent{fill:#0097a7}.accent-line{stroke:#0097a7;stroke-width:5;stroke-linecap:round;stroke-linejoin:round}.title{font:700 34px Arial,sans-serif;fill:#20242c}.label{font:700 16px Arial,sans-serif;fill:#20242c}.small{font:14px Arial,sans-serif;fill:#5e6673}.mono{font:700 13px monospace;fill:#20242c}
</style>
<rect class="bg" width="900" height="360"/>
<path d="M0 310H900M0 250H900M0 190H900M0 130H900M0 70H900M110 0V360M230 0V360M350 0V360M470 0V360M590 0V360M710 0V360M830 0V360" stroke="#e6decf" stroke-width="1" opacity=".7"/>
<text x="48" y="62" class="title">Trellis Task Board</text>
<text x="50" y="326" class="small">prd design build check archive</text>
<rect x="92" y="96" width="716" height="190" rx="18" fill="#fff" stroke="#20242c" stroke-width="3"/><text x="122" y="128" class="mono">PRD</text><rect x="122" y="144" width="130" height="40" rx="8" fill="#fff" stroke="#20242c" stroke-width="3"/> <rect x="122" y="198" width="130" height="40" rx="8" fill="#fff" stroke="#20242c" stroke-width="3"/><rect x="122" y="144" width="12" height="94" rx="6" fill="#0097a7"/><text x="290" y="128" class="mono">Design</text><rect x="290" y="144" width="130" height="40" rx="8" fill="#f5f7fb" stroke="#20242c" stroke-width="3"/> <rect x="290" y="198" width="130" height="40" rx="8" fill="#fff" stroke="#20242c" stroke-width="3"/><rect x="290" y="144" width="12" height="94" rx="6" fill="#0097a7"/><text x="458" y="128" class="mono">Build</text><rect x="458" y="144" width="130" height="40" rx="8" fill="#fff" stroke="#20242c" stroke-width="3"/> <rect x="458" y="198" width="130" height="40" rx="8" fill="#fff" stroke="#20242c" stroke-width="3"/><rect x="458" y="144" width="12" height="94" rx="6" fill="#0097a7"/><text x="626" y="128" class="mono">Check</text><rect x="626" y="144" width="130" height="40" rx="8" fill="#f5f7fb" stroke="#20242c" stroke-width="3"/> <rect x="626" y="198" width="130" height="40" rx="8" fill="#fff" stroke="#20242c" stroke-width="3"/><rect x="626" y="144" width="12" height="94" rx="6" fill="#0097a7"/><path d="M686 250c40-24 52-66 28-106" fill="none" class="accent-line"/><path d="M713 151l5-19 17 10" fill="none" class="accent-line"/>
</svg>
