<svg xmlns="http://www.w3.org/2000/svg" viewBox="0 0 1600 900" role="img" aria-labelledby="title desc">
  <title id="title">CC Switch coding project cover</title>
  <desc id="desc">A colorful desktop manager interface for switching AI coding tools and providers.</desc>
  <defs>
    <pattern id="grid" width="52" height="52" patternUnits="userSpaceOnUse">
      <path d="M52 0H0V52" fill="none" stroke="#263241" stroke-width="1"/>
    </pattern>
    <filter id="shadow" x="-20%" y="-20%" width="140%" height="140%">
      <feDropShadow dx="0" dy="22" stdDeviation="22" flood-color="#030712" flood-opacity=".28"/>
    </filter>
  </defs>
  <rect width="1600" height="900" fill="#0c1218"/>
  <rect width="1600" height="900" fill="url(#grid)" opacity=".75"/>
  <path d="M0 0h1600v180H0z" fill="#101c2d"/>
  <path d="M1078 0h522v900h-360L1044 424z" fill="#2563eb"/>
  <path d="M0 566l414-154 212 488H0z" fill="#14b8a6"/>
  <path d="M1228 586l372-134v448h-238z" fill="#8b5cf6"/>
  <rect x="360" y="150" width="720" height="500" fill="#f8fafc" stroke="#020617" stroke-width="10" filter="url(#shadow)"/>
  <rect x="360" y="150" width="720" height="74" fill="#020617"/>
  <circle cx="408" cy="187" r="11" fill="#f8fafc"/>
  <circle cx="448" cy="187" r="11" fill="#f8fafc"/>
  <circle cx="488" cy="187" r="11" fill="#f8fafc"/>
  <g font-family="Helvetica, Arial, sans-serif" font-weight="700">
    <text x="408" y="292" font-size="34" letter-spacing="4" fill="#020617">AI TOOL MANAGER</text>
    <text x="1040" y="218" font-size="32" letter-spacing="4" fill="#f8fafc">PROVIDER</text>
  </g>
  <g transform="translate(406 338)">
    <rect width="232" height="126" rx="0" fill="#101c2d"/>
    <rect x="28" y="28" width="122" height="14" fill="#f8fafc"/>
    <rect x="28" y="64" width="174" height="10" fill="#f8fafc" opacity=".7"/>
    <rect x="28" y="94" width="108" height="10" fill="#14b8a6"/>
  </g>
  <g transform="translate(624 338)">
    <rect width="232" height="126" rx="0" fill="#2563eb"/>
    <rect x="28" y="28" width="128" height="14" fill="#f8fafc"/>
    <rect x="28" y="64" width="166" height="10" fill="#f8fafc" opacity=".75"/>
    <rect x="28" y="94" width="126" height="10" fill="#facc15"/>
  </g>
  <g transform="translate(842 338)">
    <rect width="232" height="126" rx="0" fill="#8b5cf6"/>
    <rect x="28" y="28" width="112" height="14" fill="#f8fafc"/>
    <rect x="28" y="64" width="166" height="10" fill="#f8fafc" opacity=".75"/>
    <rect x="28" y="94" width="138" height="10" fill="#14b8a6"/>
  </g>
  <path d="M434 548h486" stroke="#020617" stroke-width="8" stroke-linecap="round"/>
  <circle cx="434" cy="548" r="22" fill="#14b8a6"/>
  <circle cx="676" cy="548" r="22" fill="#facc15"/>
  <circle cx="920" cy="548" r="22" fill="#8b5cf6"/>
  <rect x="1092" y="292" width="324" height="100" fill="#f8fafc" stroke="#020617" stroke-width="8"/>
  <rect x="1138" y="330" width="170" height="14" fill="#020617"/>
  <rect x="1138" y="364" width="112" height="10" fill="#020617" opacity=".58"/>
  <path d="M1020 386h72" stroke="#facc15" stroke-width="8" stroke-dasharray="14 14"/>
  <circle cx="1092" cy="386" r="13" fill="#facc15"/>
  <rect x="1122" y="470" width="260" height="88" fill="#020617"/>
  <text x="1160" y="526" font-family="Helvetica, Arial, sans-serif" font-size="34" font-weight="700" fill="#f8fafc">HOT SWITCH</text>
</svg>
