<svg xmlns="http://www.w3.org/2000/svg" viewBox="0 0 1027 636" role="img" aria-labelledby="title desc">
  <title id="title">Design to frontend components visual</title>
  <desc id="desc">A minimalist composition showing a design canvas turning into frontend component blocks.</desc>
  <defs>
    <pattern id="dots" width="26" height="26" patternUnits="userSpaceOnUse">
      <circle cx="2" cy="2" r="1.5" fill="#d8d6d0"/>
    </pattern>
    <filter id="soft-shadow" x="-20%" y="-20%" width="140%" height="140%">
      <feDropShadow dx="0" dy="18" stdDeviation="18" flood-color="#111827" flood-opacity=".13"/>
    </filter>
  </defs>
  <rect width="1027" height="636" fill="#f4f1ea"/>
  <rect x="0" y="0" width="1027" height="636" fill="url(#dots)" opacity=".8"/>
  <rect x="78" y="88" width="390" height="460" fill="#fffdf8" stroke="#1f2933" stroke-width="3" filter="url(#soft-shadow)"/>
  <rect x="560" y="88" width="390" height="460" fill="#fffdf8" stroke="#1f2933" stroke-width="3" filter="url(#soft-shadow)"/>
  <g font-family="Helvetica, Arial, sans-serif" font-size="13" font-weight="700" letter-spacing="4" fill="#1f2933">
    <text x="112" y="136">CANVAS</text>
    <text x="594" y="136">COMPONENTS</text>
  </g>
  <g transform="translate(112 170)">
    <rect width="150" height="112" fill="#1f2933"/>
    <rect x="176" y="0" width="122" height="18" fill="#1f2933"/>
    <rect x="176" y="42" width="170" height="8" fill="#1f2933"/>
    <rect x="176" y="67" width="142" height="8" fill="#1f2933"/>
    <rect x="176" y="92" width="92" height="8" fill="#1f2933"/>
    <rect x="0" y="154" width="346" height="1" fill="#d8d6d0"/>
    <rect x="0" y="195" width="346" height="46" fill="#f1eee7" stroke="#1f2933" stroke-width="3"/>
    <circle cx="28" cy="218" r="10" fill="#2777d9"/>
    <rect x="56" y="211" width="180" height="8" fill="#1f2933"/>
  </g>
  <g transform="translate(594 172)" fill="none" stroke="#1f2933" stroke-width="3">
    <rect width="310" height="72"/>
    <rect y="105" width="138" height="128"/>
    <rect x="172" y="105" width="138" height="128"/>
    <rect y="266" width="310" height="54"/>
  </g>
  <g transform="translate(619 197)" fill="#1f2933">
    <rect width="126" height="10"/>
    <rect y="24" width="82" height="8"/>
    <rect x="199" y="2" width="52" height="34" fill="#2f8f83"/>
    <rect x="2" y="302" width="124" height="8"/>
    <rect x="171" y="302" width="92" height="8"/>
  </g>
  <g transform="translate(617 303)" fill="#1f2933">
    <rect width="88" height="8"/>
    <rect y="26" width="68" height="8"/>
    <rect y="52" width="96" height="8"/>
    <circle cx="207" cy="39" r="26" fill="#e35d4f"/>
  </g>
  <path d="M468 318H560" stroke="#1f2933" stroke-width="3" stroke-dasharray="10 10"/>
  <path d="M535 294l25 24-25 24" fill="none" stroke="#1f2933" stroke-width="3" stroke-linecap="round" stroke-linejoin="round"/>
  <path d="M226 548h612" stroke="#1f2933" stroke-width="3"/>
  <circle cx="226" cy="548" r="9" fill="#2777d9"/>
  <circle cx="532" cy="548" r="9" fill="#e35d4f"/>
  <circle cx="838" cy="548" r="9" fill="#2f8f83"/>
</svg>
