<svg xmlns="http://www.w3.org/2000/svg" viewBox="0 0 1027 636" role="img" aria-labelledby="title desc">
  <title id="title">Minimal frontend design system visual</title>
  <desc id="desc">A restrained system board with tokens, component states, and accessibility checks.</desc>
  <defs>
    <pattern id="lines" width="42" height="42" patternUnits="userSpaceOnUse">
      <path d="M0 42L42 0" stroke="#dedbd3" stroke-width="1"/>
    </pattern>
    <filter id="soft-shadow" x="-20%" y="-20%" width="140%" height="140%">
      <feDropShadow dx="0" dy="18" stdDeviation="18" flood-color="#111827" flood-opacity=".13"/>
    </filter>
  </defs>
  <rect width="1027" height="636" fill="#f6f3ec"/>
  <rect width="1027" height="636" fill="url(#lines)" opacity=".45"/>
  <rect x="82" y="76" width="863" height="484" fill="#fffdf8" stroke="#1f2933" stroke-width="3" filter="url(#soft-shadow)"/>
  <g font-family="Helvetica, Arial, sans-serif" fill="#1f2933">
    <text x="118" y="129" font-size="13" font-weight="700" letter-spacing="4">TOKENS</text>
    <text x="118" y="352" font-size="13" font-weight="700" letter-spacing="4">STATES</text>
    <text x="630" y="129" font-size="13" font-weight="700" letter-spacing="4">SYSTEM</text>
  </g>
  <g transform="translate(118 164)">
    <rect width="72" height="72" fill="#1f2933"/>
    <rect x="96" width="72" height="72" fill="#2777d9"/>
    <rect x="192" width="72" height="72" fill="#e35d4f"/>
    <rect x="288" width="72" height="72" fill="#2f8f83"/>
    <rect y="112" width="360" height="3" fill="#1f2933"/>
    <rect y="136" width="250" height="3" fill="#1f2933"/>
  </g>
  <g transform="translate(118 386)" fill="none" stroke="#1f2933" stroke-width="3">
    <rect width="146" height="52"/>
    <rect x="178" width="146" height="52" stroke-dasharray="8 8"/>
    <rect y="82" width="324" height="52"/>
  </g>
  <g transform="translate(145 405)" fill="#1f2933">
    <rect width="80" height="8"/>
    <rect x="178" width="80" height="8" opacity=".45"/>
    <rect y="82" width="184" height="8"/>
    <circle cx="268" cy="86" r="12" fill="#e35d4f"/>
  </g>
  <g transform="translate(630 166)">
    <rect width="214" height="314" fill="#1f2933"/>
    <rect x="28" y="32" width="158" height="38" fill="#fffdf8"/>
    <rect x="28" y="104" width="158" height="84" fill="#fffdf8" opacity=".88"/>
    <rect x="28" y="218" width="72" height="52" fill="#2777d9"/>
    <rect x="114" y="218" width="72" height="52" fill="#2f8f83"/>
    <path d="M260 72h52M260 118h64M260 164h58M260 256h64" stroke="#1f2933" stroke-width="5" stroke-linecap="round"/>
    <circle cx="260" cy="72" r="8" fill="#2777d9"/>
    <circle cx="260" cy="118" r="8" fill="#e35d4f"/>
    <circle cx="260" cy="164" r="8" fill="#2f8f83"/>
    <circle cx="260" cy="256" r="8" fill="#1f2933"/>
  </g>
  <path d="M513 135v382" stroke="#ece8df" stroke-width="3"/>
</svg>
