<svg xmlns="http://www.w3.org/2000/svg" viewBox="0 0 1600 750" role="img" aria-labelledby="title desc">
  <title id="title">Astro design system cover</title>
  <desc id="desc">A colorful Astro cover with component orbits, tokens, and a compact frontend system.</desc>
  <defs>
    <pattern id="stars" width="84" height="84" patternUnits="userSpaceOnUse">
      <circle cx="16" cy="20" r="2" fill="#f7b267"/>
      <circle cx="58" cy="54" r="2" fill="#c6b4ff"/>
    </pattern>
    <filter id="shadow" x="-20%" y="-20%" width="140%" height="140%">
      <feDropShadow dx="0" dy="18" stdDeviation="20" flood-color="#160f2d" flood-opacity=".18"/>
    </filter>
  </defs>
  <rect width="1600" height="750" fill="#fbf5ef"/>
  <rect width="1600" height="750" fill="url(#stars)" opacity=".75"/>
  <path d="M0 0h1600v150H0z" fill="#1c1433"/>
  <path d="M0 150h390v600H0z" fill="#ff5d01"/>
  <path d="M1242 0h358v750h-244l-154-352z" fill="#7b61ff"/>
  <text x="116" y="116" font-family="Helvetica, Arial, sans-serif" font-size="48" font-weight="700" letter-spacing="6" fill="#fffdf8">Astro</text>
  <rect x="104" y="252" width="426" height="280" fill="#fffdf8" opacity=".94"/>
  <rect x="620" y="132" width="462" height="486" fill="#fffdf8" stroke="#1c1433" stroke-width="8" filter="url(#shadow)"/>
  <g transform="translate(734 174)">
    <path d="M118 0c48 94 96 188 118 330-52-40-90-58-118-58s-66 18-118 58C22 188 70 94 118 0z" fill="#1c1433"/>
    <path d="M118 88c23 45 43 98 58 164-25-14-45-20-58-20s-33 6-58 20c15-66 35-119 58-164z" fill="#fffdf8"/>
    <path d="M70 346c30-18 46-26 48-26s18 8 48 26l-48 62-48-62z" fill="#ff5d01"/>
  </g>
  <ellipse cx="852" cy="392" rx="390" ry="176" fill="none" stroke="#1c1433" stroke-width="6" stroke-dasharray="18 18"/>
  <ellipse cx="852" cy="392" rx="500" ry="236" fill="none" stroke="#7b61ff" stroke-width="5" opacity=".65"/>
  <g fill="#fffdf8" stroke="#1c1433" stroke-width="7">
    <rect x="158" y="304" width="258" height="104"/>
    <rect x="1138" y="250" width="282" height="120"/>
    <rect x="1138" y="470" width="282" height="120"/>
  </g>
  <g fill="#1c1433">
    <rect x="196" y="344" width="134" height="12"/>
    <rect x="196" y="382" width="86" height="12"/>
    <rect x="1182" y="292" width="128" height="12"/>
    <rect x="1182" y="330" width="174" height="12"/>
    <rect x="1182" y="512" width="176" height="12"/>
    <rect x="1182" y="550" width="96" height="12"/>
  </g>
  <circle cx="416" cy="304" r="16" fill="#7b61ff"/>
  <circle cx="1138" cy="250" r="16" fill="#ff5d01"/>
  <circle cx="1138" cy="590" r="16" fill="#7b61ff"/>
</svg>
