<svg xmlns="http://www.w3.org/2000/svg" viewBox="0 0 1600 750" role="img" aria-labelledby="title desc">
  <title id="title">TypeScript and Playwright delivery cover</title>
  <desc id="desc">A colorful frontend delivery cover with TypeScript modules, Playwright checks, and browser traces.</desc>
  <defs>
    <pattern id="dots" width="38" height="38" patternUnits="userSpaceOnUse">
      <circle cx="4" cy="4" r="2" fill="#d7deea"/>
    </pattern>
    <filter id="shadow" x="-20%" y="-20%" width="140%" height="140%">
      <feDropShadow dx="0" dy="18" stdDeviation="20" flood-color="#0f172a" flood-opacity=".18"/>
    </filter>
  </defs>
  <rect width="1600" height="750" fill="#f6f4ee"/>
  <rect width="1600" height="750" fill="url(#dots)" opacity=".9"/>
  <path d="M0 0h1600v148H0z" fill="#162033"/>
  <path d="M1134 0h466v750h-338L1102 364z" fill="#44bba4"/>
  <path d="M936 0h236l-150 750H786z" fill="#3178c6"/>
  <rect x="82" y="238" width="418" height="286" fill="#fffdf8" opacity=".94"/>
  <rect x="564" y="172" width="396" height="384" fill="#fffdf8" stroke="#162033" stroke-width="8" filter="url(#shadow)"/>
  <rect x="1084" y="182" width="390" height="360" fill="#fffdf8" stroke="#162033" stroke-width="8" filter="url(#shadow)"/>
  <text x="118" y="124" font-family="Helvetica, Arial, sans-serif" font-size="44" font-weight="700" letter-spacing="4" fill="#fffdf8">TypeScript</text>
  <text x="1124" y="124" font-family="Helvetica, Arial, sans-serif" font-size="44" font-weight="700" letter-spacing="4" fill="#fffdf8">Playwright</text>
  <rect x="126" y="286" width="248" height="160" fill="#3178c6"/>
  <text x="170" y="394" font-family="Helvetica, Arial, sans-serif" font-size="88" font-weight="700" fill="#fffdf8">TS</text>
  <rect x="394" y="304" width="112" height="18" fill="#162033"/>
  <rect x="394" y="352" width="150" height="14" fill="#162033" opacity=".72"/>
  <rect x="394" y="394" width="96" height="14" fill="#162033" opacity=".72"/>
  <rect x="620" y="222" width="284" height="74" fill="#eef3fb" stroke="#162033" stroke-width="6"/>
  <rect x="620" y="332" width="118" height="128" fill="#eef3fb" stroke="#162033" stroke-width="6"/>
  <rect x="786" y="332" width="118" height="128" fill="#eef3fb" stroke="#162033" stroke-width="6"/>
  <rect x="620" y="490" width="284" height="24" fill="#162033"/>
  <path d="M960 374h124" stroke="#162033" stroke-width="8" stroke-dasharray="18 18"/>
  <circle cx="1020" cy="374" r="14" fill="#ffbf3c"/>
  <rect x="1142" y="252" width="258" height="184" fill="#162033"/>
  <rect x="1178" y="286" width="186" height="94" fill="#fffdf8"/>
  <path d="M1204 330l46 42 86-92" fill="none" stroke="#44bba4" stroke-width="16" stroke-linecap="round" stroke-linejoin="round"/>
  <circle cx="1370" cy="306" r="16" fill="#ffbf3c"/>
  <circle cx="1370" cy="362" r="16" fill="#ff6b4a"/>
  <rect x="1178" y="404" width="88" height="14" fill="#fffdf8"/>
  <rect x="1298" y="404" width="66" height="14" fill="#fffdf8"/>
</svg>
