<svg xmlns="http://www.w3.org/2000/svg" viewBox="0 0 1027 636" role="img" aria-labelledby="title desc">
  <title id="title">AI design workflow visual</title>
  <desc id="desc">A minimalist workflow board connecting brief, wireframe, and polish stages.</desc>
  <defs>
    <pattern id="grid" width="34" height="34" patternUnits="userSpaceOnUse">
      <path d="M34 0H0V34" fill="none" stroke="#d9dce1" stroke-width="1"/>
    </pattern>
    <filter id="soft-shadow" x="-20%" y="-20%" width="140%" height="140%">
      <feDropShadow dx="0" dy="18" stdDeviation="18" flood-color="#111827" flood-opacity=".13"/>
    </filter>
  </defs>
  <rect width="1027" height="636" fill="#f7f5f0"/>
  <rect x="34" y="34" width="959" height="568" fill="url(#grid)" opacity=".55"/>
  <rect x="70" y="72" width="887" height="492" rx="0" fill="#fffdf8" stroke="#1f2933" stroke-width="3" filter="url(#soft-shadow)"/>
  <path d="M117 176H910M117 316H910M117 456H910" stroke="#ece8df" stroke-width="2"/>
  <path d="M344 118V518M677 118V518" stroke="#ece8df" stroke-width="2"/>
  <g font-family="Helvetica, Arial, sans-serif" letter-spacing="4" font-size="13" font-weight="700" fill="#1f2933">
    <text x="117" y="130">BRIEF</text>
    <text x="450" y="130">WIRE</text>
    <text x="783" y="130">POLISH</text>
  </g>
  <g fill="none" stroke="#1f2933" stroke-width="3">
    <rect x="116" y="164" width="168" height="208"/>
    <rect x="430" y="184" width="168" height="168"/>
    <rect x="744" y="164" width="168" height="208"/>
  </g>
  <g fill="#1f2933">
    <rect x="143" y="207" width="104" height="8"/>
    <rect x="143" y="234" width="77" height="8"/>
    <rect x="143" y="261" width="126" height="8"/>
    <rect x="143" y="288" width="92" height="8"/>
  </g>
  <g fill="none" stroke="#1f2933" stroke-width="3">
    <path d="M462 225h104v42H462z"/>
    <path d="M462 294h104"/>
    <path d="M486 225v-28h56v28"/>
  </g>
  <g fill="#1f2933">
    <rect x="782" y="210" width="92" height="12"/>
    <rect x="782" y="244" width="70" height="12"/>
    <rect x="782" y="278" width="110" height="12"/>
    <circle cx="808" cy="337" r="18"/>
    <circle cx="862" cy="337" r="18" fill="#2f8f83"/>
  </g>
  <path d="M286 266C354 236 382 236 430 266" fill="none" stroke="#2777d9" stroke-width="5" stroke-linecap="round"/>
  <path d="M598 266C666 298 696 298 744 266" fill="none" stroke="#e35d4f" stroke-width="5" stroke-linecap="round"/>
  <g fill="#fffdf8" stroke="#1f2933" stroke-width="3">
    <circle cx="286" cy="266" r="14"/>
    <circle cx="430" cy="266" r="14"/>
    <circle cx="598" cy="266" r="14"/>
    <circle cx="744" cy="266" r="14"/>
  </g>
  <g transform="translate(437 409)">
    <rect width="154" height="54" fill="#1f2933"/>
    <path d="M27 28h100" stroke="#fffdf8" stroke-width="4" stroke-linecap="round"/>
    <path d="M116 18l14 10-14 10" fill="none" stroke="#fffdf8" stroke-width="4" stroke-linecap="round" stroke-linejoin="round"/>
  </g>
</svg>
