<svg xmlns="http://www.w3.org/2000/svg" viewBox="0 0 1200 1200" role="img" aria-labelledby="title desc">
  <title id="title">ChatGPT and Figma workflow cover</title>
  <desc id="desc">A colorful editorial cover showing ChatGPT prompts flowing into Figma interface frames.</desc>
  <defs>
    <pattern id="grid" width="48" height="48" patternUnits="userSpaceOnUse">
      <path d="M48 0H0V48" fill="none" stroke="#dfe5ec" stroke-width="1.5"/>
    </pattern>
    <filter id="shadow" x="-20%" y="-20%" width="140%" height="140%">
      <feDropShadow dx="0" dy="22" stdDeviation="22" flood-color="#12202b" flood-opacity=".16"/>
    </filter>
  </defs>
  <rect width="1200" height="1200" fill="#f6f2ea"/>
  <rect width="1200" height="1200" fill="url(#grid)" opacity=".85"/>
  <path d="M0 0h1200v342H0z" fill="#13221f"/>
  <path d="M858 0h342v1200H986L766 518z" fill="#7b61ff"/>
  <path d="M0 164l332 104v278L0 636z" fill="#10a37f"/>
  <path d="M1200 662l-286 104v282l286-112z" fill="#ff6b4a"/>
  <rect x="118" y="210" width="468" height="346" fill="#fffdf8" stroke="#13221f" stroke-width="8" filter="url(#shadow)"/>
  <rect x="118" y="210" width="468" height="68" fill="#13221f"/>
  <circle cx="164" cy="244" r="11" fill="#f6f2ea"/>
  <circle cx="202" cy="244" r="11" fill="#f6f2ea"/>
  <circle cx="240" cy="244" r="11" fill="#f6f2ea"/>
  <text x="154" y="344" font-family="Helvetica, Arial, sans-serif" font-size="42" font-weight="700" letter-spacing="2" fill="#13221f">ChatGPT</text>
  <rect x="158" y="396" width="318" height="18" fill="#13221f"/>
  <rect x="158" y="444" width="242" height="14" fill="#13221f" opacity=".72"/>
  <rect x="158" y="486" width="294" height="14" fill="#13221f" opacity=".72"/>
  <rect x="676" y="264" width="386" height="322" fill="#fffdf8" stroke="#13221f" stroke-width="8" filter="url(#shadow)"/>
  <text x="720" y="344" font-family="Helvetica, Arial, sans-serif" font-size="42" font-weight="700" letter-spacing="2" fill="#13221f">Figma</text>
  <rect x="720" y="400" width="112" height="112" fill="#10a37f"/>
  <rect x="862" y="400" width="118" height="24" fill="#7b61ff"/>
  <rect x="862" y="456" width="140" height="16" fill="#13221f" opacity=".72"/>
  <rect x="862" y="494" width="104" height="16" fill="#13221f" opacity=".72"/>
  <rect x="720" y="538" width="282" height="42" fill="#13221f"/>
  <circle cx="764" cy="559" r="11" fill="#ff6b4a"/>
  <circle cx="812" cy="559" r="11" fill="#10a37f"/>
  <circle cx="860" cy="559" r="11" fill="#7b61ff"/>
  <path d="M586 398h90" fill="none" stroke="#13221f" stroke-width="10" stroke-dasharray="16 16"/>
  <path d="M646 356l42 42-42 42" fill="none" stroke="#13221f" stroke-width="10" stroke-linecap="round" stroke-linejoin="round"/>
  <rect x="688" y="706" width="260" height="92" fill="#13221f"/>
  <text x="728" y="766" font-family="Helvetica, Arial, sans-serif" font-size="34" font-weight="700" fill="#fffdf8">ITERATE</text>
  <circle cx="732" cy="904" r="34" fill="#10a37f"/>
  <circle cx="832" cy="904" r="34" fill="#7b61ff"/>
  <circle cx="932" cy="904" r="34" fill="#ff6b4a"/>
</svg>
